<svg width="75" height="26" viewBox="0 0 75 26" fill="none" xmlns="http://www.w3.org/2000/svg">
<path d="M0 25.907H6.24074V0.906982H0V25.907ZM66.6424 14.0892L74.1182 25.907H67.3476L63.01 18.6344H62.9387L58.6724 25.907H51.5499L59.2023 14.02L51.0584 1.24314V6.15416H37.9758V11.503H49.0128V16.3279H37.9758V20.8039H50.8462V25.907H31.7336V0.906982H57.933L62.8348 9.36885H62.9046L67.6296 0.906982H75L66.6424 14.0892ZM30.7137 13.2502C30.7137 8.84484 29.1624 5.31376 26.3405 3.18099C24.3661 1.71207 21.8262 0.908394 18.6538 0.908394H8.28632V25.907H19.0413C26.0228 25.907 30.7137 20.907 30.7137 13.2502ZM24.4017 13.2502C24.4017 17.7954 22.1795 20.7318 18.2664 20.7318H14.5285V6.11744H18.1952C22.2849 6.11744 24.4017 8.66969 24.4017 13.2502Z" fill="black"/>
</svg>
