<svg viewBox="0 0 182 26" fill="none" xmlns="http://www.w3.org/2000/svg">
<path fill-rule="evenodd" clip-rule="evenodd" d="M149.307 7.19913C149.307 5.02381 147.911 3.71429 145.92 3.71429C144.232 3.71429 142.695 5.24026 142.695 7.00433C142.695 8.7684 143.831 9.67749 146.18 10.4242C151.385 12.0801 153.312 14.039 153.312 18.2056C153.312 22.3723 150.184 25.5 145.92 25.5C141.656 25.5 138.561 22.4372 138.496 17.9134H142.013C142.045 20.5216 143.571 22.2749 145.92 22.2749C148.268 22.2749 149.794 20.5866 149.794 18.2056C149.794 16.4524 149.015 15.3377 146.439 14.461C140.487 12.4481 139.188 10.4892 139.188 7.06926C139.188 3.40043 142.219 0.5 145.92 0.5C149.892 0.5 152.76 3.01082 152.825 7.19913H149.307ZM0 0.954543V4.17965H4.62121V25.0346H8.13853V4.17965H12.7597V0.954543H0ZM28.3874 0.954543V11.3333H18.4632V0.954543H14.9459V25.0346H18.4632V14.5584H28.3874V25.0346H31.8939V0.954543H28.3874ZM34.0909 25.0346V0.954543H47.0671V4.17965H37.5974V11.2684H47.0671V14.4935H37.5974V21.8095H47.0671V25.0346H34.0909ZM80.7359 0.954543V4.17965H85.3571V25.0346H88.8745V4.17965H93.4957V0.954543H80.7359ZM101.742 5.51082H101.688L98.5931 14.7208H104.805L101.742 5.51082ZM90.974 25.0346L100.119 0.954543H103.279L112.424 25.0346H108.68L106.017 17.9351H97.3593L94.6861 25.0346H90.974ZM114.253 0.954543V25.0346H126.136V21.8095H117.771V0.954543H114.253ZM130.076 12.2532L135.346 0.954543H139.253L131.829 16.3442V25.0346H128.322V16.3442L120.833 0.954543H124.773L130.076 12.2532ZM153.539 4.17965V0.954543H166.299V4.17965H161.677V25.0346H158.16V4.17965H153.539ZM177.327 7.19913C177.327 5.02381 175.931 3.71429 173.939 3.71429C172.251 3.71429 170.714 5.24026 170.714 7.00433C170.714 8.7684 171.851 9.67749 174.199 10.4242C179.405 12.0801 181.32 14.039 181.32 18.2056C181.32 22.3723 178.193 25.5 173.929 25.5C169.664 25.5 166.58 22.4372 166.515 17.9134H170.032C170.065 20.5216 171.591 22.2749 173.939 22.2749C176.288 22.2749 177.814 20.5866 177.814 18.2056C177.814 16.4524 177.035 15.3377 174.459 14.461C168.506 12.4481 167.197 10.4892 167.197 7.06926C167.208 3.40043 170.238 0.5 173.939 0.5C177.911 0.5 180.779 3.01082 180.844 7.19913H177.327ZM70.2164 12.9026H75.0325V5.52164H74.9675L70.2164 12.9026ZM59.7078 22.1017L74.2208 0.954545H78.5498V25.0455H75.0325V16.1277H68.0736L64.1017 21.9502C65.9091 21.5065 67.5325 20.5216 69.3506 18.3139H73.4416C70.79 23.1515 66.7532 25.5 61.5043 25.5C54.0476 25.5 48.9719 19.3528 48.9719 12.7078C48.9719 6.06277 54.6645 0.5 61.1364 0.5C64.881 0.5 67.7273 1.57143 69.8918 3.37879L67.9654 6.19264C65.8009 4.33117 63.9069 3.71429 61.4286 3.71429C56.4827 3.71429 52.4784 7.84848 52.4784 12.9242C52.4784 17.1883 55.4113 21.29 59.7078 22.1017Z" fill="currentColor"/>
</svg>
