<?xml version="1.0" encoding="utf-8"?>
<!-- Generator: Adobe Illustrator 26.2.1, SVG Export Plug-In . SVG Version: 6.00 Build 0)  -->
<svg version="1.1" id="Layer_1" xmlns="http://www.w3.org/2000/svg" xmlns:xlink="http://www.w3.org/1999/xlink" x="0px" y="0px"
	 viewBox="0 0 810.5 780" style="enable-background:new 0 0 810.5 780;" xml:space="preserve" fill="currentColor">
<g>
	<path d="M291.2,109.3h9.8c1.3,0,2.4-1.1,2.4-2.4V50.4c0-1.4,1.1-2.4,2.4-2.4c1,0,1.9,0.6,2.3,1.5l23.7,57.5c1,1,1.1,2.4,2.4,2.4
		h9.8c1.3,0,2.4-1.1,2.4-2.4V2.4c0-1.3-1.1-2.4-2.4-2.4h-9.8c-1.3,0-2.4,1.1-2.4,2.4v56.2c0,1.5-1.1,2.6-2.4,2.6
		c-1,0-1.8-0.6-2.3-1.4L303.4,2.4C302.9,1.3,302.3,0,301,0h-9.8c-1.3,0-2.4,1.1-2.4,2.4v104.5C288.7,108.2,289.9,109.3,291.2,109.3z
		"/>
	<path d="M383.4,109.3h45.9c1.3,0,2.4-1.1,2.4-2.4v-9.2c0-1.3-1.1-2.4-2.4-2.4H398c-1.5,0-2.4-1.1-2.4-2.4V63.4c0-1.3,1-2.4,2.4-2.4
		h13.5c1.3,0,2.4-1.1,2.4-2.4v-9.2c0-1.3-1.1-2.4-2.4-2.4H398c-1.5,0-2.4-1.1-2.4-2.4V16.4c0-1.3,1-2.4,2.4-2.4h31.2
		c1.3,0,2.4-1,2.4-2.4V2.4c0-1.3-1.1-2.4-2.4-2.4h-45.9c-1.3,0-2.4,1.1-2.4,2.4v104.5C381,108.2,382.1,109.3,383.4,109.3z"/>
	<path d="M492.2,83.7l14.2,24.1c0.3,0.6,0.8,1.4,2.3,1.4h10.8c1.3,0,2.4-1.1,2.4-2.4V2.4c0-1.3-1.1-2.4-2.4-2.4h-9.8
		c-1.3,0-2.4,1.1-2.4,2.4v69.9c0,1.4-1.1,2.4-2.4,2.4c-0.8,0-1.6-0.3-1.9-1l-10.3-17.1c-0.5-0.8-1.5-1.3-2.3-1.3
		c-1.1,0-1.9,0.5-2.4,1.3l-10.3,16.9c-0.3,0.6-1.1,1-1.9,1c-1.3,0-2.4-1-2.4-2.3V2.4c0-1.3-1.1-2.4-2.4-2.4H461
		c-1.3,0-2.4,1.1-2.4,2.4v104.5c0,1.3,1.1,2.4,2.4,2.4h10.6c1.1,0,2.1-0.8,2.6-1.6l14-24c0.3-0.6,1.1-1.1,2.1-1.1
		C491.1,82.6,491.9,83.1,492.2,83.7z"/>
	<path d="M12.2,334.8H2.4c-1.3,0-2.4,1.1-2.4,2.4v104.5c0,1.3,1.1,2.4,2.4,2.4h9.8c1.3,0,2.4-1.1,2.4-2.4V337.2
		C14.7,335.9,13.5,334.8,12.2,334.8z"/>
	<path d="M78.7,441.7v-56.5c0-1.4,1.1-2.4,2.4-2.4c1,0,1.9,0.6,2.3,1.5l23.7,57.5c1,1,1.1,2.4,2.4,2.4h9.8c1.3,0,2.4-1.1,2.4-2.4
		V337.2c0-1.3-1.1-2.4-2.4-2.4h-9.8c-1.3,0-2.4,1.1-2.4,2.4v56.2c0,1.5-1.1,2.6-2.4,2.6c-1,0-1.8-0.6-2.3-1.4l-23.7-57.3
		c-0.5-1.1-1.1-2.4-2.4-2.4h-9.8c-1.3,0-2.4,1.1-2.4,2.4v104.5c0,1.3,1.1,2.4,2.4,2.4h9.8C77.6,444.1,78.7,443,78.7,441.7z"/>
	<path d="M207.8,416.3c0-1.4-1.1-2.4-2.4-2.4h-9.8c-1.3,0-2.4,1-2.4,2.4c0,7.7-6.3,14.2-14.2,14.2c-7.9,0-14.2-6.4-14.2-14.2v-53.5
		c0-7.9,6.3-14.2,14.2-14.2c7.9,0,14.2,6.3,14.2,14.2c0,1.3,1.1,2.4,2.4,2.4h9.8c1.3,0,2.4-1.1,2.4-2.4c0-15.9-12.9-28.8-28.8-28.8
		c-15.9,0-28.8,12.9-28.8,28.8v53.5c0,15.8,12.9,28.8,28.8,28.8C194.9,445.1,207.8,432.1,207.8,416.3z"/>
	<path d="M265.1,445.1c15.9,0,28.8-13,28.8-28.8v-79c0-1.3-1.1-2.4-2.4-2.4h-9.8c-1.3,0-2.4,1.1-2.4,2.4v79
		c0,7.7-6.3,14.2-14.2,14.2s-14.2-6.4-14.2-14.2v-79c0-1.3-1.1-2.4-2.4-2.4h-9.8c-1.3,0-2.4,1.1-2.4,2.4v79
		C236.3,432.1,249.1,445.1,265.1,445.1z"/>
	<path d="M368.9,390.5c-0.5-0.5-1-1-1-1.8c0-0.8,0.5-1.4,1.1-1.9c5.5-5.5,8.7-13,8.7-21.4c0-16.9-13.4-30.6-30.3-30.6h-21.9
		c-1.3,0-2.4,1.1-2.4,2.4v104.5c0,1.3,1.1,2.4,2.4,2.4h21.7c19,0,31.7-14,31.7-31.2C379,404.2,374.7,396.2,368.9,390.5z
		 M337.8,351.2c0-1.3,1-2.4,2.4-2.4h6.6c9.2,0,16.4,7.4,16.4,16.6c0,8.9-7.1,16.4-15.9,16.4h-7.1c-1.5,0-2.4-1.1-2.4-2.4V351.2z
		 M347.3,430.1h-7.1c-1.3,0-2.4-1.1-2.4-2.4v-29.5c0-1.3,1-2.4,2.4-2.4h7.1c9.5,0,17.2,7.7,17.2,17.2
		C364.6,422.4,356.8,430.1,347.3,430.1z"/>
	<path d="M465.6,442v-0.3l-20.8-104.8c-0.3-1.1-1.1-2.1-2.4-2.1h-8.9c-1.1,0-2.1,1-2.4,2.1l-21.7,104v0.8c0,1.3,1.1,2.4,2.4,2.4h8.4
		c1.3,0,2.1-1,2.4-2.1l1.9-10c0.3-1.1,1.3-1.9,2.4-1.9h19.8c1.3,0,2.1,1,2.4,2.3l1.8,10c0.2,1,1.3,1.8,2.4,1.8h9.8
		C464.3,444.1,465.6,443.2,465.6,442z M445.8,414.7c0,1.3-1,2.4-2.4,2.4h-12.9c-1.3,0-2.3-1.1-2.3-2.4v-0.5l7.1-35.6
		c0.2-1,1-1.6,2.1-1.6c1,0,1.9,0.6,2.1,1.6l6.3,35.4V414.7z"/>
	<path d="M492.8,337.2v9.2c0,1.5,1.1,2.4,2.4,2.4h18.3c1.3,0,2.4,1.1,2.4,2.4v90.5c0,1.3,1.1,2.4,2.4,2.4h9.8c1.3,0,2.4-1.1,2.4-2.4
		v-90.5c0-1.3,1-2.4,2.4-2.4h18.4c1.3,0,2.4-1,2.4-2.4v-9.2c0-1.3-1.1-2.4-2.4-2.4h-56.2C493.9,334.8,492.8,335.9,492.8,337.2z"/>
	<path d="M605.2,444.1h9.8c1.3,0,2.4-1.1,2.4-2.4V337.2c0-1.3-1.1-2.4-2.4-2.4h-9.8c-1.3,0-2.4,1.1-2.4,2.4v104.5
		C602.7,443,603.9,444.1,605.2,444.1z"/>
	<path d="M724.6,416.3v-53.5c0-15.9-12.9-28.8-28.8-28.8c-15.9,0-28.8,12.9-28.8,28.8v53.5c0,15.8,12.9,28.8,28.8,28.8
		C711.7,445.1,724.6,432.1,724.6,416.3z M681.6,416.3v-53.5c0-7.9,6.3-14.2,14.2-14.2c7.9,0,14.2,6.3,14.2,14.2v53.5
		c0,7.7-6.3,14.2-14.2,14.2C687.9,430.5,681.6,424,681.6,416.3z"/>
	<path d="M808.1,334.8h-9.8c-1.3,0-2.4,1.1-2.4,2.4v56.2c0,1.5-1.1,2.6-2.4,2.6c-1,0-1.8-0.6-2.3-1.4l-23.7-57.3
		c-0.5-1.1-1.1-2.4-2.4-2.4h-9.8c-1.3,0-2.4,1.1-2.4,2.4v104.5c0,1.3,1.1,2.4,2.4,2.4h9.8c1.3,0,2.4-1.1,2.4-2.4v-56.5
		c0-1.4,1.1-2.4,2.4-2.4c1,0,1.9,0.6,2.3,1.5l23.7,57.5c1,1,1.1,2.4,2.4,2.4h9.8c1.3,0,2.4-1.1,2.4-2.4V337.2
		C810.5,335.9,809.4,334.8,808.1,334.8z"/>
	<path d="M129.6,669.7h-8.7c-1.3,0-2.1,1-2.4,2.1l-12.7,63.4c-0.2,1-1,1.6-2.1,1.6c-1,0-1.9-0.6-2.1-1.6l-11.4-63.6
		c-0.2-1.1-1.3-1.9-2.4-1.9h-9.8c-1.1,0-2.4,1-2.4,2.1v0.3l20.8,104.8c0.3,1.1,1.1,2.1,2.4,2.1h8.9c1.1,0,2.1-0.8,2.4-1.9L132,672.9
		v-0.8C132,670.8,130.9,669.7,129.6,669.7z"/>
	<path d="M215,669.7h-45.9c-1.3,0-2.4,1.1-2.4,2.4v104.5c0,1.3,1.1,2.4,2.4,2.4H215c1.3,0,2.4-1.1,2.4-2.4v-9.2
		c0-1.3-1.1-2.4-2.4-2.4h-31.2c-1.5,0-2.4-1.1-2.4-2.4v-29.5c0-1.3,1-2.4,2.4-2.4h13.5c1.3,0,2.4-1.1,2.4-2.4v-9.2
		c0-1.3-1.1-2.4-2.4-2.4h-13.5c-1.5,0-2.4-1.1-2.4-2.4v-28.2c0-1.3,1-2.4,2.4-2.4H215c1.3,0,2.4-1,2.4-2.4v-9.2
		C217.5,670.8,216.3,669.7,215,669.7z"/>
	<path d="M302,669.7h-9.8c-1.3,0-2.4,1.1-2.4,2.4v56.2c0,1.4-1.1,2.6-2.4,2.6c-1,0-1.8-0.6-2.3-1.4l-23.7-57.3
		c-0.5-1.1-1.1-2.4-2.4-2.4h-9.8c-1.3,0-2.4,1.1-2.4,2.4v104.5c0,1.3,1.1,2.4,2.4,2.4h9.8c1.3,0,2.4-1.1,2.4-2.4v-56.5
		c0-1.4,1.1-2.4,2.4-2.4c1,0,1.9,0.6,2.3,1.5l23.7,57.5c1,1,1.1,2.4,2.4,2.4h9.8c1.3,0,2.4-1.1,2.4-2.4V672.1
		C304.4,670.8,303.2,669.7,302,669.7z"/>
	<path d="M389.7,669.7h-56.2c-1.3,0-2.4,1.1-2.4,2.4v9.2c0,1.5,1.1,2.4,2.4,2.4h18.3c1.3,0,2.4,1.1,2.4,2.4v90.5
		c0,1.3,1.1,2.4,2.4,2.4h9.8c1.3,0,2.4-1.1,2.4-2.4v-90.5c0-1.3,1-2.4,2.4-2.4h18.4c1.3,0,2.4-1,2.4-2.4v-9.2
		C392.1,670.8,391,669.7,389.7,669.7z"/>
	<path d="M474.2,669.7h-9.8c-1.3,0-2.4,1.1-2.4,2.4v79c0,7.7-6.3,14.2-14.2,14.2s-14.2-6.4-14.2-14.2v-79c0-1.3-1.1-2.4-2.4-2.4
		h-9.8c-1.3,0-2.4,1.1-2.4,2.4v79c0,15.8,12.9,28.8,28.8,28.8c15.9,0,28.8-13,28.8-28.8v-79C476.6,670.8,475.5,669.7,474.2,669.7z"
		/>
	<path d="M545.5,730.4c0-0.3-0.2-0.8-0.2-1.1c0-0.8,0.5-1.6,1.1-2.1c9.7-5.2,16.3-15.3,16.3-26.9c0-16.9-13.4-30.6-30.3-30.6h-21.9
		c-1.3,0-2.4,1.1-2.4,2.4v104.5c0,1.3,1.1,2.4,2.4,2.4h9.8c1.3,0,2.4-1.1,2.4-2.4v-43.5c0-1.3,1-2.4,2.4-2.4h3.4
		c1,0,1.9,0.6,2.3,1.6l16.4,44.9c0.5,1,1.3,1.8,2.4,1.8h11.3c1.4,0,2.4-1.1,2.4-2.4c0-0.5,0-0.8-0.2-1.1L545.5,730.4z M531.8,716.7
		h-6.6c-1.4,0-2.4-1.1-2.4-2.4v-28.2c0-1.3,1-2.4,2.4-2.4h6.6c9.2,0,16.4,7.4,16.4,16.6C548.2,709.3,541,716.7,531.8,716.7z"/>
	<path d="M645.6,669.7h-45.9c-1.3,0-2.4,1.1-2.4,2.4v104.5c0,1.3,1.1,2.4,2.4,2.4h45.9c1.3,0,2.4-1.1,2.4-2.4v-9.2
		c0-1.3-1.1-2.4-2.4-2.4h-31.2c-1.5,0-2.4-1.1-2.4-2.4v-29.5c0-1.3,1-2.4,2.4-2.4h13.5c1.3,0,2.4-1.1,2.4-2.4v-9.2
		c0-1.3-1.1-2.4-2.4-2.4h-13.5c-1.5,0-2.4-1.1-2.4-2.4v-28.2c0-1.3,1-2.4,2.4-2.4h31.2c1.3,0,2.4-1,2.4-2.4v-9.2
		C648,670.8,646.9,669.7,645.6,669.7z"/>
	<path d="M723.8,728.3L697.9,709c-3.5-2.6-5.5-6.6-5.5-11.3c0-7.9,6-14.8,13.8-14.8c7.9,0,13,6.9,13,14.8c0,1.3,1.1,2.4,2.4,2.4h9.8
		c1.3,0,2.4-1.1,2.4-2.4c0-15.9-11.8-28.8-27.7-28.8c-15.9,0-28.5,12.9-28.5,28.8c0,9.2,3.7,18.4,10.6,23.3l26.6,18.8
		c3.4,2.4,5.5,6.6,5.5,11.3c0,7.7-6.3,14.2-14.2,14.2c-7.9,0-14.2-6.4-14.2-14.2c0-1.4-1.1-2.4-2.4-2.4h-9.8c-1.3,0-2.4,1-2.4,2.4
		c0,15.8,12.9,28.8,28.8,28.8c15.9,0,28.8-13,28.8-28.8C735.1,741.8,730.7,733.5,723.8,728.3z"/>
	<polygon points="183.8,566.4 169.9,566.4 169.9,559.3 183,559.3 183,555.1 169.9,555.1 169.9,548.6 183.8,548.6 183.8,544.4 
		164.7,544.4 164.7,570.6 183.8,570.6 	"/>
	<path d="M200.3,566.1c-0.5,0.3-1.1,0.5-1.7,0.6c-0.6,0.1-1.2,0.2-1.8,0.2c-0.8,0-1.5-0.1-2.2-0.2c-0.7-0.2-1.3-0.4-1.9-0.8
		c-0.6-0.4-1-0.9-1.4-1.5s-0.6-1.4-0.8-2.4h-5c0.1,1.4,0.5,2.7,1,3.8c0.6,1.1,1.3,2.1,2.3,2.8c1,0.8,2.1,1.4,3.4,1.8
		c1.3,0.4,2.8,0.6,4.4,0.6c1.3,0,2.6-0.2,3.9-0.5c1.3-0.3,2.4-0.8,3.4-1.5c1-0.7,1.8-1.5,2.4-2.5c0.6-1,0.9-2.2,0.9-3.5
		c0-1.3-0.3-2.5-0.8-3.4c-0.5-0.9-1.2-1.7-2.1-2.3s-1.8-1.1-2.9-1.4c-1.1-0.3-2.1-0.6-3.2-0.8l-3.4-0.6c-1.1-0.2-1.9-0.6-2.6-1.1
		c-0.7-0.5-1-1.2-1-2.2c0-0.6,0.2-1.1,0.5-1.5c0.3-0.4,0.7-0.8,1.2-1c0.5-0.3,1-0.4,1.6-0.6c0.6-0.1,1.2-0.2,1.8-0.2
		s1.2,0.1,1.8,0.2c0.6,0.1,1.2,0.4,1.7,0.7c0.5,0.3,0.9,0.7,1.3,1.3c0.4,0.5,0.6,1.2,0.7,1.9h5c-0.1-1.3-0.4-2.4-1-3.4
		c-0.6-1-1.3-1.9-2.3-2.6c-0.9-0.7-2-1.3-3.2-1.6c-1.2-0.4-2.5-0.6-3.8-0.6c-1.2,0-2.4,0.2-3.7,0.5c-1.2,0.3-2.4,0.8-3.4,1.4
		c-1,0.6-1.8,1.4-2.5,2.3c-0.6,0.9-1,2.1-1,3.4c0,1.1,0.2,2.1,0.6,3c0.4,0.9,1,1.6,1.7,2.2c0.7,0.6,1.5,1.1,2.5,1.5
		c0.9,0.4,2,0.7,3,0.9l3.3,0.6c0.7,0.1,1.3,0.3,1.9,0.5c0.6,0.2,1.1,0.4,1.5,0.7c0.4,0.3,0.8,0.6,1,1c0.2,0.4,0.4,0.9,0.4,1.4
		c0,0.7-0.2,1.3-0.5,1.7C201.3,565.5,200.8,565.9,200.3,566.1z"/>
	<polygon points="207.8,548.6 215.8,548.6 215.8,570.6 221,570.6 221,548.6 229.1,548.6 229.1,544.4 207.8,544.4 	"/>
	<polygon points="239.1,542.7 243.1,542.7 248.9,538.6 242.8,538.6 	"/>
	<polygon points="250.6,566.4 236.7,566.4 236.7,559.3 249.9,559.3 249.9,555.1 236.7,555.1 236.7,548.6 250.6,548.6 250.6,544.4 
		231.6,544.4 231.6,570.6 250.6,570.6 	"/>
	<polygon points="272.9,548.6 272.9,544.4 253.8,544.4 253.8,570.6 272.9,570.6 272.9,566.4 259,566.4 259,559.3 272.1,559.3 
		272.1,555.1 259,555.1 259,548.6 	"/>
	<polygon points="284.2,544.4 284.2,570.6 302.1,570.6 302.1,566.4 289.4,566.4 289.4,544.4 	"/>
	<path d="M312.2,544.4l-9.7,26.1h5.3l1.8-5.3h10.2l1.8,5.3h5.6l-9.8-26.1H312.2z M311,561l3.6-10.3l3.6,10.3H311z"/>
	<path d="M339.2,571c1.9,0,3.5-0.2,4.9-0.6c1.4-0.4,2.5-1,3.4-1.9c0.9-0.9,1.5-2.1,1.9-3.6c0.4-1.5,0.6-3.3,0.6-5.4v-15.1h-5.2v15.1
		c0,1.2-0.1,2.2-0.2,3.1c-0.1,0.9-0.4,1.7-0.8,2.3c-0.4,0.6-1,1.1-1.7,1.5c-0.7,0.3-1.7,0.5-2.9,0.5c-1.2,0-2.2-0.2-2.9-0.5
		c-0.7-0.3-1.3-0.8-1.7-1.5c-0.4-0.6-0.7-1.4-0.8-2.3c-0.1-0.9-0.2-1.9-0.2-3.1v-15.1h-5.2v15.1c0,2.2,0.2,4,0.6,5.4
		s1.1,2.7,1.9,3.6c0.9,0.9,2,1.6,3.4,1.9C335.6,570.8,337.3,571,339.2,571z"/>
	<path d="M372.4,547c-1.3-1-2.8-1.7-4.6-2.1c-1.8-0.4-3.7-0.6-5.8-0.6h-7.8v26.1h7.8c2.1,0,4-0.2,5.8-0.6c1.8-0.4,3.3-1.1,4.6-2.1
		c1.3-1,2.3-2.3,3-4c0.7-1.7,1.1-3.8,1.1-6.4s-0.4-4.7-1.1-6.4C374.7,549.4,373.7,548,372.4,547z M370.4,562.2
		c-0.5,1.2-1.2,2.1-2.1,2.7c-0.9,0.6-1.9,1.1-3,1.3c-1.1,0.2-2.3,0.3-3.5,0.3h-2.4v-18.1h2.4c1.2,0,2.3,0.1,3.5,0.3
		c1.1,0.2,2.1,0.6,3,1.3c0.9,0.6,1.6,1.5,2.1,2.7c0.5,1.2,0.8,2.8,0.8,4.7C371.2,559.4,370.9,561,370.4,562.2z"/>
	<polygon points="380.2,570.6 399.2,570.6 399.2,566.4 385.3,566.4 385.3,559.3 398.5,559.3 398.5,555.1 385.3,555.1 385.3,548.6 
		399.2,548.6 399.2,544.4 380.2,544.4 	"/>
	<path d="M418.2,559.2c1.6-0.7,2.8-1.6,3.6-2.8c0.8-1.2,1.1-2.5,1.1-4.1c0-1.4-0.2-2.6-0.6-3.6c-0.4-1-1.1-1.8-2.1-2.5
		c-0.9-0.6-2.2-1.1-3.7-1.4c-1.5-0.3-3.3-0.5-5.5-0.5h-8.6v26.1h5.2v-10.2h4.3h1.2l5.2,10.2h5.7L418.2,559.2z M416.2,555.3
		c-0.9,0.7-2.4,1-4.4,1h-4.3v-7.9h4c0.9,0,1.7,0.1,2.4,0.2c0.7,0.1,1.4,0.3,1.9,0.6c0.5,0.3,0.9,0.7,1.2,1.2
		c0.3,0.5,0.5,1.1,0.5,1.9C417.6,553.7,417.1,554.7,416.2,555.3z"/>
	<path d="M441.4,550.4c0.6-0.8,1.4-1.4,2.2-1.8c0.9-0.4,1.8-0.6,2.8-0.6c0.7,0,1.4,0.1,2.1,0.2c0.7,0.2,1.3,0.4,1.8,0.8
		c0.5,0.4,1,0.9,1.4,1.5c0.4,0.6,0.8,1.4,1,2.3h4.9c-0.2-1.4-0.6-2.6-1.2-3.7c-0.6-1.1-1.4-2-2.4-2.8c-1-0.8-2.1-1.4-3.4-1.8
		c-1.3-0.4-2.7-0.6-4.2-0.6c-1.9,0-3.6,0.3-5.1,0.9c-1.5,0.6-2.8,1.5-3.9,2.7c-1.1,1.2-1.9,2.6-2.5,4.2c-0.6,1.7-0.9,3.5-0.9,5.6
		c0,2.1,0.3,4,0.8,5.7c0.5,1.7,1.3,3.1,2.4,4.3c1,1.2,2.3,2.1,3.8,2.7c1.5,0.6,3.2,1,5.2,1c1.6,0,3-0.2,4.3-0.7
		c1.3-0.4,2.5-1.1,3.4-1.9c1-0.8,1.8-1.8,2.4-2.9c0.6-1.1,1-2.3,1.2-3.6h-4.9c-0.2,0.9-0.5,1.6-0.9,2.3c-0.4,0.6-0.9,1.1-1.5,1.5
		s-1.2,0.7-1.9,0.9c-0.7,0.2-1.4,0.3-2.2,0.3c-0.9,0-1.8-0.2-2.7-0.6c-0.8-0.4-1.6-1-2.2-1.8c-0.6-0.8-1.1-1.8-1.5-3
		c-0.4-1.2-0.5-2.6-0.5-4.1c0-1.5,0.2-2.8,0.5-4C440.3,552.2,440.8,551.2,441.4,550.4z"/>
	<path d="M482.3,547.6c-1.1-1.2-2.5-2.1-4-2.7c-1.6-0.6-3.3-1-5.3-1c-1.9,0-3.7,0.3-5.3,1c-1.6,0.6-2.9,1.6-4,2.7
		c-1.1,1.2-2,2.6-2.6,4.3c-0.6,1.7-0.9,3.5-0.9,5.5s0.3,3.9,0.9,5.5c0.6,1.7,1.5,3.1,2.6,4.3c1.1,1.2,2.5,2.1,4,2.8
		c1.6,0.6,3.3,1,5.3,1c1.9,0,3.7-0.3,5.3-1c1.6-0.6,2.9-1.6,4-2.8c1.1-1.2,2-2.6,2.6-4.3c0.6-1.7,0.9-3.5,0.9-5.5s-0.3-3.9-0.9-5.5
		C484.3,550.3,483.4,548.8,482.3,547.6z M479.8,561.5c-0.4,1.2-0.9,2.2-1.6,3c-0.7,0.8-1.5,1.4-2.4,1.8c-0.9,0.4-1.9,0.6-2.9,0.6
		s-2-0.2-2.9-0.6c-0.9-0.4-1.7-1-2.4-1.8c-0.7-0.8-1.2-1.8-1.6-3c-0.4-1.2-0.6-2.5-0.6-4.1s0.2-2.9,0.6-4.1c0.4-1.2,0.9-2.1,1.6-2.9
		c0.7-0.8,1.5-1.4,2.4-1.8s1.9-0.6,2.9-0.6s2,0.2,2.9,0.6c0.9,0.4,1.7,1,2.4,1.8c0.7,0.8,1.2,1.8,1.6,2.9c0.4,1.2,0.6,2.5,0.6,4.1
		S480.2,560.4,479.8,561.5z"/>
	<polygon points="512.2,570.6 517,570.6 517,544.4 509.4,544.4 503.2,564.8 496.9,544.4 489.4,544.4 489.4,570.6 494.2,570.6 
		494.2,550.9 500.6,570.6 505.8,570.6 512.2,550.9 	"/>
	<path d="M538.4,545.8c-0.7-0.4-1.5-0.7-2.4-0.9c-0.9-0.2-1.7-0.3-2.7-0.4s-1.8-0.1-2.7-0.1h-8.9v26.1h5.2v-9.2h3.9
		c1.5,0,3-0.1,4.3-0.4c1.4-0.2,2.6-0.7,3.6-1.3c1-0.6,1.9-1.5,2.5-2.5c0.6-1.1,0.9-2.5,0.9-4.1c0-1.3-0.2-2.5-0.5-3.4
		c-0.3-0.9-0.8-1.7-1.3-2.4C539.8,546.7,539.1,546.2,538.4,545.8z M536.4,555.2c-0.3,0.6-0.7,1-1.2,1.3c-0.5,0.3-1.1,0.5-1.8,0.7
		c-0.7,0.1-1.4,0.2-2.2,0.2h-4.3v-8.9h3.9c0.7,0,1.4,0,2.1,0.1c0.7,0.1,1.4,0.3,2,0.6c0.6,0.3,1.1,0.8,1.4,1.4
		c0.4,0.6,0.6,1.5,0.6,2.5C536.8,554,536.7,554.7,536.4,555.2z"/>
	<path d="M549.4,544.4l-9.7,26.1h5.3l1.8-5.3h10.2l1.8,5.3h5.6l-9.8-26.1H549.4z M548.2,561l3.6-10.3l3.6,10.3H548.2z"/>
	<polygon points="583.9,564.3 573.4,544.4 566.7,544.4 566.7,570.6 571.6,570.6 571.6,550.6 582,570.6 588.7,570.6 588.7,544.4 
		583.9,544.4 	"/>
	<rect x="593.4" y="544.4" width="5.2" height="26.1"/>
	<polygon points="622.3,548.6 622.3,544.4 603.3,544.4 603.3,570.6 622.3,570.6 622.3,566.4 608.4,566.4 608.4,559.3 621.6,559.3 
		621.6,555.1 608.4,555.1 608.4,548.6 	"/>
	<path d="M638.9,566.1c-0.5,0.3-1.1,0.5-1.7,0.6c-0.6,0.1-1.2,0.2-1.8,0.2c-0.8,0-1.5-0.1-2.2-0.2c-0.7-0.2-1.3-0.4-1.9-0.8
		c-0.6-0.4-1-0.9-1.4-1.5c-0.4-0.6-0.6-1.4-0.8-2.4h-5c0.1,1.4,0.5,2.7,1,3.8c0.6,1.1,1.3,2.1,2.3,2.8c1,0.8,2.1,1.4,3.4,1.8
		c1.3,0.4,2.8,0.6,4.4,0.6c1.3,0,2.6-0.2,3.9-0.5c1.3-0.3,2.4-0.8,3.4-1.5c1-0.7,1.8-1.5,2.4-2.5c0.6-1,0.9-2.2,0.9-3.5
		c0-1.3-0.3-2.5-0.8-3.4c-0.5-0.9-1.2-1.7-2.1-2.3c-0.9-0.6-1.8-1.1-2.9-1.4c-1.1-0.3-2.1-0.6-3.2-0.8l-3.4-0.6
		c-1.1-0.2-1.9-0.6-2.6-1.1c-0.7-0.5-1-1.2-1-2.2c0-0.6,0.2-1.1,0.5-1.5c0.3-0.4,0.7-0.8,1.2-1c0.5-0.3,1-0.4,1.6-0.6
		c0.6-0.1,1.2-0.2,1.8-0.2s1.2,0.1,1.8,0.2c0.6,0.1,1.2,0.4,1.7,0.7c0.5,0.3,0.9,0.7,1.3,1.3c0.4,0.5,0.6,1.2,0.7,1.9h5
		c-0.1-1.3-0.4-2.4-1-3.4c-0.6-1-1.3-1.9-2.3-2.6c-0.9-0.7-2-1.3-3.2-1.6c-1.2-0.4-2.5-0.6-3.8-0.6c-1.2,0-2.4,0.2-3.7,0.5
		c-1.2,0.3-2.4,0.8-3.4,1.4c-1,0.6-1.8,1.4-2.5,2.3c-0.6,0.9-1,2.1-1,3.4c0,1.1,0.2,2.1,0.6,3c0.4,0.9,1,1.6,1.7,2.2
		c0.7,0.6,1.5,1.1,2.5,1.5c0.9,0.4,2,0.7,3,0.9l3.3,0.6c0.7,0.1,1.3,0.3,1.9,0.5c0.6,0.2,1.1,0.4,1.5,0.7c0.4,0.3,0.8,0.6,1,1
		c0.2,0.4,0.4,0.9,0.4,1.4c0,0.7-0.2,1.3-0.5,1.7C639.8,565.5,639.4,565.9,638.9,566.1z"/>
	<path d="M465.6,197.1H344.9v50h120.7V197.1z M379.8,239.4c0,0.2-0.1,0.3-0.3,0.3h-4.9c-0.1,0-0.2-0.1-0.3-0.2l-11-25.2
		c-0.8-1.9-1.6-4.2-1.6-4.2h-0.1c0.1,0.9,0.1,2,0.1,3v26.2c0,0.2-0.1,0.3-0.3,0.3h-4c-0.2,0-0.3-0.1-0.3-0.3v-34.7
		c0-0.2,0.1-0.3,0.3-0.3h5.8l10.4,24c0.9,2.2,1.5,3.9,1.7,4.6h0.1c-0.1-1.2-0.1-2.5-0.1-3.8v-24.6c0-0.2,0.1-0.3,0.3-0.3h4
		c0.2,0,0.3,0.1,0.3,0.3V239.4z M415.4,207.9c0,0.2-0.1,0.3-0.3,0.3h-8.3c-0.2,0-0.3,0.1-0.3,0.3v27.2c0,0.2,0.1,0.3,0.3,0.3h8.3
		c0.2,0,0.3,0.1,0.3,0.3v3.2c0,0.2-0.1,0.3-0.3,0.3h-21.7c-0.2,0-0.3-0.1-0.3-0.3v-3.2c0-0.2,0.1-0.3,0.3-0.3h8.2
		c0.2,0,0.3-0.1,0.3-0.3v-27.2c0-0.2-0.1-0.3-0.3-0.3h-8.2c-0.2,0-0.3-0.1-0.3-0.3v-3.2c0-0.2,0.1-0.3,0.3-0.3h21.7
		c0.2,0,0.3,0.1,0.3,0.3V207.9z M453.3,204.8l-10.5,34.7c0,0.1-0.1,0.2-0.3,0.2h-5.3c-0.1,0-0.2-0.1-0.3-0.2l-10.4-34.7
		c-0.1-0.2,0.1-0.4,0.3-0.4h4.2c0.1,0,0.2,0.1,0.3,0.2l7.8,28.3c0.2,0.7,0.5,2,0.6,2.7h0.2c0.2-0.7,0.4-2,0.6-2.7l7.7-28.3
		c0-0.1,0.1-0.2,0.3-0.2h4.3C453.3,204.4,453.4,204.6,453.3,204.8z"/>
</g>
</svg>
