<svg width="300" height="28" viewBox="0 0 300 28" fill="none" xmlns="http://www.w3.org/2000/svg">
<g clip-path="url(#clip0_350_343)">
<path d="M78.4219 20.1557H87.1863V18.2117H80.7896V14.9004H86.8392V12.9438H80.7896V9.90854H87.1863V7.95192H78.4219V20.1557Z" fill="black"/>
<mask id="mask0_350_343" style="mask-type:luminance" maskUnits="userSpaceOnUse" x="0" y="0" width="300" height="28">
<path d="M300 0H0V27.907H300V0Z" fill="white"/>
</mask>
<g mask="url(#mask0_350_343)">
<path d="M96.7063 13.9848C96.322 13.7214 95.8633 13.4831 95.3674 13.3326C94.8715 13.1821 94.3757 13.0692 93.9046 12.9438L92.3302 12.6428C91.8344 12.555 91.4501 12.3794 91.1277 12.1411C90.8054 11.9028 90.6567 11.5516 90.6567 11.1377C90.6567 10.8743 90.7187 10.636 90.8674 10.4228C91.0162 10.2221 91.1897 10.0716 91.3881 9.94617C91.6236 9.82074 91.8591 9.74549 92.1443 9.68277C92.4046 9.62006 92.7021 9.59498 92.9624 9.59498C93.2228 9.59498 93.5203 9.62006 93.8054 9.68277C94.1029 9.74549 94.3633 9.85837 94.5988 10.0089C94.8343 10.1594 95.0327 10.3601 95.1815 10.5984C95.355 10.8367 95.4418 11.1252 95.5038 11.4889H97.7848C97.76 10.8994 97.6112 10.3601 97.3509 9.92108C97.0905 9.44447 96.7434 9.06819 96.2972 8.70446C95.8633 8.37836 95.3674 8.11497 94.8096 7.93937C94.2517 7.76378 93.6691 7.67598 93.0244 7.67598C92.4666 7.67598 91.9211 7.73869 91.3261 7.87666C90.7434 8.02717 90.2476 8.22785 89.7765 8.52887C89.3054 8.82989 88.9335 9.18108 88.636 9.62006C88.3385 10.059 88.2021 10.5984 88.2021 11.213C88.2021 11.7397 88.2889 12.1913 88.4996 12.6052C88.7104 13.0191 88.9707 13.3452 89.293 13.6336C89.6153 13.9221 89.9996 14.1604 90.4335 14.336C90.8674 14.5116 91.3385 14.6621 91.8096 14.7499L93.322 15.0509C93.6443 15.1137 93.9418 15.1638 94.2021 15.2516C94.4624 15.3394 94.698 15.4272 94.9087 15.5777C95.1195 15.6906 95.2558 15.8787 95.3798 16.0543C95.4914 16.2299 95.5534 16.4682 95.5534 16.7066C95.5534 17.0327 95.4666 17.296 95.3178 17.5344C95.1691 17.735 94.9707 17.9232 94.7352 18.0611C94.4996 18.174 94.2393 18.2618 93.9418 18.3245C93.6443 18.3872 93.3839 18.4123 93.1236 18.4123C92.7765 18.4123 92.417 18.3872 92.1071 18.2994C91.7848 18.2367 91.4872 18.0988 91.2269 17.9106C90.9666 17.735 90.7558 17.4967 90.5823 17.1957C90.4087 16.8947 90.2848 16.5184 90.198 16.0669H87.917C87.979 16.7191 88.1277 17.3086 88.3881 17.8354C88.6484 18.3622 89.0079 18.8137 89.4418 19.1649C89.8757 19.5161 90.4087 19.8171 91.0162 19.9927C91.636 20.2059 92.3054 20.2937 93.0368 20.2937C93.6567 20.2937 94.2393 20.2059 94.822 20.0554C95.4046 19.9049 95.9377 19.6666 96.3715 19.3405C96.8426 19.0144 97.1897 18.6255 97.4872 18.1615C97.7848 17.6849 97.9211 17.1581 97.9211 16.531C97.9211 15.9038 97.8096 15.3771 97.5368 14.9381C97.2765 14.4991 97.1029 14.2357 96.7186 13.9347" fill="black"/>
</g>
<path d="M98.2559 9.90854H101.975V20.1557H104.343V9.90854H108.049V7.95192H98.2559V9.90854Z" fill="black"/>
<path d="M117.198 5.25529H114.384L112.661 7.14921H114.57L117.198 5.25529Z" fill="black"/>
<path d="M109.215 20.1557H117.979V18.2117H111.583V14.9004H117.632V12.9438H111.583V9.90854H117.979V7.95192H109.215V20.1557Z" fill="black"/>
<path d="M119.479 20.1557H128.244V18.2117H121.835V14.9004H127.884V12.9438H121.835V9.90854H128.244V7.95192H119.479V20.1557Z" fill="black"/>
<path d="M135.831 7.95192H133.463V20.1557H141.707V18.2117H135.831V7.95192Z" fill="black"/>
<path d="M145.822 15.7282L147.484 10.9119L149.145 15.7282H145.81H145.822ZM146.355 7.95192L141.855 20.1306H144.285L145.128 17.6472H149.802L150.645 20.1306H153.211L148.711 7.95192H146.343H146.355Z" fill="black"/>
<mask id="mask1_350_343" style="mask-type:luminance" maskUnits="userSpaceOnUse" x="0" y="0" width="300" height="28">
<path d="M300 0H0V27.907H300V0Z" fill="white"/>
</mask>
<g mask="url(#mask1_350_343)">
<path d="M161.368 15.0133C161.368 15.5401 161.343 16.0418 161.281 16.4557C161.219 16.8696 161.083 17.2584 160.897 17.5469C160.723 17.8479 160.463 18.0737 160.103 18.2242C159.756 18.3747 159.31 18.4625 158.789 18.4625C158.232 18.4625 157.798 18.3747 157.451 18.2242C157.103 18.0737 156.831 17.8354 156.657 17.5469C156.446 17.2459 156.335 16.8947 156.273 16.4557C156.211 16.0418 156.186 15.5401 156.186 15.0133V7.95192H153.818V14.9882C153.818 15.9916 153.905 16.8445 154.116 17.5344C154.327 18.2117 154.612 18.7761 155.021 19.19C155.43 19.6039 155.951 19.9049 156.57 20.1056C157.178 20.2812 157.946 20.369 158.851 20.369C159.756 20.369 160.488 20.2812 161.095 20.1056C161.74 19.93 162.236 19.629 162.645 19.19C163.054 18.7761 163.351 18.2117 163.525 17.5344C163.699 16.8571 163.822 15.9916 163.822 14.9882V7.95192H161.455V15.0133H161.368Z" fill="black"/>
<path d="M173.182 16.255C172.946 16.8194 172.599 17.2333 172.19 17.5218C171.781 17.8103 171.31 18.0235 170.789 18.1113C170.256 18.1991 169.736 18.2618 169.178 18.2618H168.074V9.83329H169.178C169.736 9.83329 170.256 9.896 170.789 9.9838C171.31 10.0716 171.781 10.2848 172.19 10.5733C172.599 10.8743 172.922 11.2882 173.182 11.8401C173.417 12.4045 173.566 13.1445 173.566 14.0225C173.566 14.9004 173.455 15.6781 173.182 16.2425M174.087 9.19362C173.504 8.71701 172.773 8.42853 171.955 8.25294C171.136 8.07735 170.256 7.98955 169.302 7.98955H165.731V20.1683H169.302C170.269 20.1683 171.136 20.0805 171.955 19.9049C172.773 19.7293 173.479 19.4032 174.087 18.9266C174.669 18.45 175.141 17.8354 175.488 17.0577C175.835 16.255 175.984 15.2893 175.984 14.0726C175.984 12.856 175.81 11.8526 175.488 11.0875C175.165 10.2848 174.694 9.67024 174.087 9.19362Z" fill="black"/>
</g>
<path d="M177.682 20.1557H186.471V18.2117H180.074V14.9004H186.124V12.9438H180.074V9.90854H186.471V7.95192H177.682V20.1557Z" fill="black"/>
<mask id="mask2_350_343" style="mask-type:luminance" maskUnits="userSpaceOnUse" x="0" y="0" width="300" height="28">
<path d="M300 0H0V27.907H300V0Z" fill="white"/>
</mask>
<g mask="url(#mask2_350_343)">
<path d="M194.306 13.0316C193.897 13.3326 193.19 13.5082 192.286 13.5082H190.327V9.84583H192.174C192.583 9.84583 192.93 9.87092 193.29 9.93363C193.637 9.99634 193.934 10.0841 194.17 10.2346C194.405 10.3852 194.604 10.5608 194.752 10.7991C194.901 11.0374 194.963 11.3258 194.963 11.6896C194.938 12.3042 194.728 12.7557 194.319 13.0442M196.847 13.5709C197.195 13.0065 197.368 12.392 197.368 11.677C197.368 11.0248 197.281 10.498 197.071 10.0214C196.86 9.54481 196.55 9.16854 196.104 8.86752C195.67 8.57904 195.112 8.34074 194.405 8.19023C193.699 8.03972 192.856 7.98955 191.864 7.98955H187.922V20.1683H190.29V15.3771H192.806L195.199 20.1683H197.827L195.137 14.8754C195.93 14.5493 196.476 14.1103 196.835 13.5709" fill="black"/>
<path d="M205.897 10.7614C206.195 10.3726 206.542 10.1092 206.914 9.93363C207.298 9.75803 207.732 9.67023 208.203 9.67023C208.525 9.67023 208.847 9.69532 209.17 9.78312C209.467 9.84583 209.752 9.98379 209.988 10.1719C210.248 10.3475 210.459 10.5858 210.657 10.8869C210.868 11.1879 211.004 11.5391 211.128 11.953H213.385C213.298 11.3008 213.087 10.7363 212.802 10.2346C212.504 9.73295 212.157 9.28142 211.723 8.93023C211.29 8.57904 210.756 8.27802 210.174 8.10243C209.591 7.90175 208.947 7.80141 208.215 7.80141C207.335 7.80141 206.554 7.95192 205.847 8.24039C205.141 8.54141 204.533 8.95531 204.062 9.4821C203.591 10.0214 203.182 10.6611 202.922 11.4638C202.661 12.2289 202.513 13.1194 202.513 14.0601C202.513 15.0008 202.624 15.9164 202.897 16.694C203.157 17.4967 203.504 18.1489 204.013 18.7008C204.484 19.2652 205.091 19.6791 205.798 19.9676C206.492 20.2686 207.285 20.4066 208.19 20.4066C208.922 20.4066 209.566 20.2937 210.174 20.0805C210.794 19.8798 211.314 19.5788 211.748 19.19C212.219 18.8011 212.566 18.3622 212.852 17.8605C213.149 17.3588 213.323 16.7693 213.385 16.1798H211.128C211.042 16.5937 210.893 16.9449 210.695 17.2459C210.521 17.5469 210.285 17.7727 210.025 17.9608C209.765 18.1364 209.467 18.2869 209.145 18.3747C208.823 18.4625 208.476 18.4876 208.128 18.4876C207.695 18.4876 207.285 18.3998 206.901 18.1866C206.517 18.011 206.195 17.71 205.909 17.3337C205.612 16.9449 205.414 16.5059 205.24 15.9415C205.066 15.3771 204.98 14.7625 204.98 14.0225C204.98 13.2825 205.066 12.693 205.24 12.1662C205.414 11.5767 205.624 11.1252 205.909 10.7489" fill="black"/>
<path d="M223.612 15.9665C223.438 16.531 223.178 16.9699 222.88 17.3588C222.558 17.7476 222.211 18.011 221.764 18.1866C221.355 18.3622 220.884 18.4876 220.426 18.4876C219.967 18.4876 219.521 18.3998 219.087 18.1866C218.678 18.011 218.293 17.71 217.971 17.3588C217.649 16.9699 217.413 16.531 217.24 15.9665C217.066 15.4021 216.979 14.7876 216.979 14.0726C216.979 13.3577 217.066 12.7181 217.24 12.1787C217.413 11.6519 217.674 11.1753 217.971 10.8241C218.293 10.4353 218.64 10.1719 219.087 9.99634C219.496 9.82074 219.967 9.69532 220.426 9.69532C220.884 9.69532 221.331 9.78312 221.764 9.99634C222.174 10.1719 222.558 10.473 222.88 10.8241C223.202 11.213 223.438 11.6519 223.612 12.1787C223.785 12.7055 223.872 13.3577 223.872 14.0726C223.872 14.7876 223.785 15.4021 223.612 15.9665ZM224.715 9.49464C224.194 8.93023 223.574 8.51633 222.843 8.22785C222.112 7.93937 221.293 7.78886 220.413 7.78886C219.533 7.78886 218.715 7.93937 217.983 8.22785C217.252 8.52887 216.645 8.96786 216.112 9.49464C215.591 10.059 215.207 10.7113 214.909 11.4763C214.649 12.2414 214.5 13.1069 214.5 14.0476C214.5 14.9882 214.649 15.8537 214.909 16.6188C215.169 17.3838 215.579 18.0737 216.112 18.6256C216.632 19.19 217.252 19.6039 217.983 19.93C218.715 20.231 219.533 20.369 220.413 20.369C221.293 20.369 222.112 20.2184 222.843 19.93C223.574 19.6289 224.182 19.19 224.715 18.6256C225.248 18.0611 225.62 17.4089 225.917 16.6188C226.178 15.8537 226.326 14.9882 226.326 14.0476C226.326 13.1069 226.178 12.2414 225.917 11.4763C225.62 10.7113 225.248 10.034 224.715 9.49464Z" fill="black"/>
</g>
<path d="M234.384 17.4716L231.471 7.95192H228.024V20.1557H230.206V10.9997L233.194 20.1557H235.562L238.512 10.9997V20.1557H240.731V7.95192H237.223L234.384 17.4716Z" fill="black"/>
<mask id="mask3_350_343" style="mask-type:luminance" maskUnits="userSpaceOnUse" x="0" y="0" width="300" height="28">
<path d="M300 0H0V27.907H300V0Z" fill="white"/>
</mask>
<g mask="url(#mask3_350_343)">
<path d="M249.645 13.0065C249.496 13.2699 249.322 13.4831 249.087 13.596C248.851 13.7465 248.566 13.8343 248.244 13.8845C247.922 13.9472 247.574 13.9723 247.227 13.9723H245.269V9.83329H247.054C247.376 9.83329 247.698 9.85838 248.046 9.896C248.368 9.92109 248.69 10.0089 248.951 10.1594C249.211 10.3099 249.446 10.5106 249.62 10.8116C249.793 11.1126 249.88 11.4889 249.88 11.9906C249.855 12.4045 249.793 12.7306 249.645 12.994M251.864 13.9221C252.161 13.4204 252.273 12.7682 252.273 12.0031C252.273 11.3886 252.186 10.8492 252.037 10.4353C251.889 9.99634 251.69 9.63261 251.417 9.34413C251.157 9.04312 250.86 8.81735 250.513 8.62921C250.165 8.45362 249.806 8.30311 249.397 8.21531C249.012 8.12752 248.603 8.0648 248.17 8.03972C247.76 8.01463 247.327 8.01463 246.917 8.01463H242.802V20.1934H245.17V15.8788H246.979C247.686 15.8788 248.355 15.816 248.963 15.7032C249.608 15.5903 250.165 15.3771 250.624 15.1137C251.207 14.8126 251.591 14.4364 251.851 13.9347" fill="black"/>
</g>
<path d="M255.137 15.7282L256.798 10.9119L258.459 15.7282H255.124H255.137ZM255.657 7.95192L251.157 20.1306H253.587L254.43 17.6472H259.103L259.946 20.1306H262.513L258.013 7.95192H255.645H255.657Z" fill="black"/>
<path d="M271.525 17.2584L266.703 7.95192H263.641V20.1557H265.86V10.8492L270.682 20.1557H273.781V7.95192H271.525V17.2584Z" fill="black"/>
<path d="M278.306 7.95192H275.938V20.1306H278.306V7.95192Z" fill="black"/>
<path d="M280.463 20.1557H289.227V18.2117H282.868V14.9004H288.905V12.9438H282.868V9.90854H289.227V7.95192H280.463V20.1557Z" fill="black"/>
<mask id="mask4_350_343" style="mask-type:luminance" maskUnits="userSpaceOnUse" x="0" y="0" width="300" height="28">
<path d="M300 0H0V27.907H300V0Z" fill="white"/>
</mask>
<g mask="url(#mask4_350_343)">
<path d="M299.715 15.0509C299.48 14.612 299.157 14.2482 298.748 13.9848C298.364 13.7214 297.905 13.4831 297.409 13.3326C296.914 13.1821 296.418 13.0692 295.947 12.9438L294.372 12.6428C293.876 12.555 293.492 12.3794 293.17 12.1411C292.847 11.9028 292.699 11.5516 292.699 11.1377C292.699 10.8743 292.761 10.636 292.897 10.4228C293.046 10.2221 293.219 10.0716 293.418 9.94617C293.653 9.83328 293.889 9.74549 294.174 9.68277C294.434 9.62006 294.732 9.59498 294.992 9.59498C295.252 9.59498 295.55 9.62006 295.835 9.68277C296.133 9.74549 296.393 9.85837 296.628 10.0089C296.864 10.1594 297.062 10.3601 297.211 10.5984C297.385 10.8367 297.471 11.1252 297.533 11.4889H299.814C299.79 10.8994 299.641 10.3601 299.38 9.92108C299.12 9.44447 298.773 9.06819 298.327 8.70446C297.893 8.37836 297.397 8.11497 296.839 7.93937C296.281 7.76378 295.699 7.67598 295.054 7.67598C294.496 7.67598 293.938 7.73869 293.356 7.87666C292.773 8.02717 292.277 8.22785 291.806 8.52887C291.335 8.82989 290.963 9.18108 290.666 9.62006C290.368 10.059 290.232 10.5984 290.232 11.213C290.232 11.7397 290.318 12.1913 290.529 12.6052C290.728 12.994 291 13.3452 291.323 13.6336C291.645 13.9347 292.029 14.173 292.463 14.3486C292.897 14.5242 293.368 14.6747 293.839 14.7625L295.364 15.0635C295.686 15.1262 295.971 15.1764 296.244 15.2642C296.504 15.352 296.74 15.4398 296.951 15.5903C297.149 15.7032 297.298 15.8913 297.422 16.0669C297.546 16.2425 297.595 16.4808 297.595 16.7191C297.595 17.0452 297.509 17.3086 297.36 17.5469C297.211 17.7476 297.013 17.9357 296.777 18.0737C296.542 18.1866 296.281 18.2744 295.984 18.3371C295.686 18.3998 295.426 18.4249 295.166 18.4249C294.819 18.4249 294.459 18.3998 294.149 18.312C293.827 18.2493 293.542 18.1113 293.269 17.9232C293.009 17.7476 292.798 17.5093 292.624 17.2083C292.451 16.9072 292.327 16.531 292.24 16.092H289.959C290.021 16.7442 290.157 17.3337 290.43 17.8605C290.69 18.3872 291.038 18.8388 291.484 19.19C291.918 19.5411 292.451 19.8422 293.058 20.0178C293.666 20.2184 294.347 20.3188 295.079 20.3188C295.686 20.3188 296.281 20.231 296.864 20.0805C297.447 19.93 297.98 19.6917 298.414 19.3656C298.885 19.0394 299.232 18.6506 299.529 18.1866C299.827 17.7099 299.963 17.1832 299.963 16.556C300.087 15.9916 299.963 15.4648 299.728 15.0133" fill="black"/>
<path d="M6.71901 4.28952C6.71901 4.20172 6.78099 4.13901 6.86777 4.13901H10.0537L15.781 17.4967C16.314 18.7384 16.5992 19.654 16.7231 20.0679H16.7851C16.7231 19.4157 16.7231 18.6757 16.7231 17.9733V4.28952C16.7231 4.20172 16.7851 4.13901 16.8719 4.13901H19.0909C19.1777 4.13901 19.2397 4.20172 19.2397 4.28952V23.6551C19.2397 23.7429 19.1777 23.8056 19.0909 23.8056H16.376C16.376 23.8056 16.2521 23.7805 16.2273 23.7178L10.1777 9.64515C9.70661 8.55396 9.29752 7.31225 9.29752 7.31225H9.21074C9.27273 7.83904 9.27273 8.44108 9.27273 8.99294V23.6551C9.27273 23.7429 9.21074 23.8056 9.12397 23.8056H6.90496C6.81818 23.8056 6.7562 23.7429 6.7562 23.6551V4.28952H6.7314H6.71901ZM26.5909 21.8741C26.5909 21.7863 26.6529 21.7235 26.7397 21.7235H31.2645C31.3512 21.7235 31.4132 21.6608 31.4132 21.573V6.35903C31.4132 6.27123 31.3512 6.20852 31.2645 6.20852H26.7397C26.6529 6.20852 26.5909 6.14581 26.5909 6.05801V4.28952C26.5909 4.20172 26.6529 4.13901 26.7397 4.13901H38.6901C38.7769 4.13901 38.8388 4.20172 38.8388 4.28952V6.05801C38.8388 6.14581 38.7769 6.20852 38.6901 6.20852H34.1281C34.0413 6.20852 33.9793 6.27123 33.9793 6.35903V21.5479C33.9793 21.6357 34.0413 21.6985 34.1281 21.6985H38.6901C38.7769 21.6985 38.8388 21.7612 38.8388 21.849V23.6175C38.8388 23.7053 38.7769 23.768 38.6901 23.768H26.7397C26.6529 23.768 26.5909 23.7053 26.5909 23.6175V21.8741ZM45.2603 4.11393H47.6033C47.6033 4.11393 47.7521 4.17664 47.7521 4.22681L52.0785 20.0178C52.2025 20.4317 52.3388 21.1466 52.4256 21.5605H52.5372C52.624 21.1717 52.7727 20.4317 52.8843 20.0178L57.1488 4.22681C57.1488 4.22681 57.2355 4.11393 57.2975 4.11393H59.6653C59.7769 4.11393 59.8388 4.20172 59.814 4.31461L54.062 23.6802C54.062 23.6802 53.9752 23.793 53.9132 23.793H50.9876C50.9876 23.793 50.8636 23.7303 50.8388 23.6802L45.0868 4.31461C45.062 4.22681 45.1488 4.11393 45.2603 4.11393ZM0 27.907H66.6198V0H0V27.907Z" fill="black"/>
</g>
</g>
<defs>
<clipPath id="clip0_350_343">
<rect width="300" height="27.907" fill="white"/>
</clipPath>
</defs>
</svg>
