<svg version="1.2" xmlns="http://www.w3.org/2000/svg" viewBox="0 0 400 400">
	<title>Simplified Stacked Black and White Tag TikTok-svg</title>
	<style>
		.s0 { fill: #ffffff } 
	</style>
	<g id="Layer">
		<g id="Layer">
			<g id="Layer">
				<path id="Layer" class="s0" d="m254.1 110.5c-9.4-6.2-16.2-16-18.4-27.5q-0.7-3.7-0.7-7.7h-30.1l-0.1 120.8c-0.5 13.5-11.6 24.4-25.2 24.4-4.3 0-8.3-1.1-11.8-3-8-4.2-13.6-12.6-13.6-22.4 0-14 11.4-25.3 25.4-25.3 2.6 0 5.1 0.4 7.4 1.2v-23.7-7.1c-2.4-0.3-4.9-0.5-7.4-0.5-30.6 0-55.5 24.8-55.5 55.4 0 18.8 9.4 35.4 23.7 45.4 9 6.3 19.9 10.1 31.7 10.1 30.6 0 55.5-24.9 55.5-55.5v-61.2c11.8 8.5 26.3 13.5 41.9 13.5v-23.5-6.7c-8.4 0-16.2-2.5-22.8-6.7z"/>
			</g>
		</g>
		<g id="Layer">
			<path id="Layer" class="s0" d="m59.4 284.6h48.6l-4.5 13.9h-12.6v51.3h-15.7v-51.3h-15.8z"/>
			<path id="Layer" class="s0" d="m187.5 284.6h49.7l-4.5 13.9h-13.7v51.3h-15.7v-51.3h-15.8z"/>
			<path id="Layer" class="s0" d="m110.9 305.3h15.6v44.5h-15.5z"/>
			<path id="Layer" class="s0" d="m132.7 284.4h15.5v30.4l15.4-15.1h18.6l-19.5 18.9 21.8 31.2h-17.1l-14.6-21.7-4.6 4.5v17.2h-15.5c0 0 0-65.4 0-65.4z"/>
			<path id="Layer" class="s0" d="m290.8 284.4h15.5v30.4l15.4-15.1h18.6l-19.5 18.9 21.8 31.2h-17.1l-14.6-21.7-4.6 4.5v17.2h-15.5z"/>
			<path id="Layer" class="s0" d="m117.7 300.3c-4.3 0-7.8-3.6-7.8-7.9 0-4.3 3.5-7.8 7.8-7.8 4.3 0 7.8 3.5 7.8 7.8 0 4.3-3.5 7.9-7.8 7.9z"/>
			<path id="Layer" fill-rule="evenodd" class="s0" d="m284.5 323.2c0 14.7-12 26.6-26.7 26.6-14.7 0-26.6-11.9-26.6-26.6 0-14.7 11.9-26.6 26.6-26.6 14.7 0 26.6 11.9 26.7 26.6zm-13.7 0c0-7.2-5.8-13-13-13-7.1 0-12.9 5.8-12.9 13 0 7.1 5.8 12.9 12.9 12.9 7.2 0 13-5.8 13-12.9z"/>
		</g>
	</g>
</svg>