<svg width="93" height="23" viewBox="0 0 93 23" fill="none" xmlns="http://www.w3.org/2000/svg">
<g clip-path="url(#clip0_350_388)">
<mask id="mask0_350_388" style="mask-type:luminance" maskUnits="userSpaceOnUse" x="0" y="0" width="93" height="23">
<path d="M92.3741 0.906982H0V22.907H92.3741V0.906982Z" fill="white"/>
</mask>
<g mask="url(#mask0_350_388)">
<path d="M16.3188 5.31992C15.1282 4.54345 14.2741 3.31404 14.0153 1.86463C13.9635 1.55404 13.9247 1.23051 13.9247 0.906982H10.1459V16.0611C10.0812 17.7564 8.68353 19.1152 6.96235 19.1152C6.43177 19.1152 5.92706 18.9858 5.48706 18.7529C4.47765 18.2223 3.77882 17.1611 3.77882 15.9446C3.77882 14.1846 5.20235 12.7611 6.96235 12.7611C7.28588 12.7611 7.59647 12.8129 7.89412 12.9035V9.04698C7.58353 9.00816 7.27294 8.98228 6.96235 8.98228C3.11882 8.98228 0 12.1011 0 15.9446C0 18.2999 1.17765 20.3835 2.97647 21.6387C4.10235 22.4282 5.48706 22.907 6.96235 22.907C10.8059 22.907 13.9247 19.7882 13.9247 15.9446V8.25757C15.4129 9.31875 17.2247 9.95286 19.1918 9.95286V6.17404C18.1306 6.17404 17.1471 5.86345 16.3318 5.31992" fill="#1D1D1D"/>
</g>
<path d="M22.8027 6.18698V9.60345H26.6851V22.2082H30.5416V9.60345H33.6345L34.7216 6.18698H22.8027Z" fill="#1D1D1D"/>
<path d="M54.2627 6.18698V9.60345H58.145V22.2082H62.0015V9.60345H65.3662L66.4662 6.18698H54.2627Z" fill="#1D1D1D"/>
<path d="M35.4463 11.2858L35.4722 22.2211H39.2769V11.2858H35.4463Z" fill="#1D1D1D"/>
<path d="M40.791 6.14816V22.2082H44.6087V17.9893L45.7475 16.8893L49.3193 22.2082H53.5251L48.1675 14.534L52.9557 9.88816H48.4004L44.6087 13.6023V6.14816H40.791Z" fill="#1D1D1D"/>
<path d="M79.627 6.14816V22.2082H83.4446V17.9893L84.5834 16.8893L88.1681 22.2082H92.374L87.0034 14.534L91.7917 9.88816H87.2364L83.4446 13.6023V6.14816H79.627Z" fill="#1D1D1D"/>
<mask id="mask1_350_388" style="mask-type:luminance" maskUnits="userSpaceOnUse" x="0" y="0" width="93" height="23">
<path d="M92.3741 0.906982H0V22.907H92.3741V0.906982Z" fill="white"/>
</mask>
<g mask="url(#mask1_350_388)">
<path d="M39.2891 8.11522C39.2891 9.17639 38.422 10.0435 37.3609 10.0435C36.2997 10.0435 35.4326 9.17639 35.4326 8.11522C35.4326 7.05404 36.2997 6.18698 37.3609 6.18698C38.422 6.18698 39.2891 7.05404 39.2891 8.11522Z" fill="#1D1D1D"/>
<path d="M71.5385 18.8564C69.7785 18.8564 68.3549 17.4329 68.3549 15.6729C68.3549 13.9129 69.7785 12.4893 71.5385 12.4893C73.2985 12.4893 74.722 13.9129 74.722 15.6729C74.722 17.4329 73.2985 18.8564 71.5385 18.8564ZM71.5385 9.12463C67.9279 9.12463 64.9902 12.0493 64.9902 15.6599C64.9902 19.2705 67.9149 22.2082 71.5385 22.2082C75.162 22.2082 78.0867 19.2835 78.0867 15.6599C78.0867 12.0364 75.162 9.12463 71.5385 9.12463Z" fill="#1D1D1D"/>
</g>
</g>
<defs>
<clipPath id="clip0_350_388">
<rect width="92.3741" height="22" fill="white" transform="translate(0 0.906982)"/>
</clipPath>
</defs>
</svg>
