<svg width="98" height="42" viewBox="0 0 98 42" fill="none" xmlns="http://www.w3.org/2000/svg">
<path fill-rule="evenodd" clip-rule="evenodd" d="M0.0932617 1.56076H8.72719V1.79128H6.61062L13.0442 19.4364L18.4928 1.79128H16.3552V1.56076H21.0075V1.79128H18.9538L11.2838 26.1842L2.35653 1.79128H0.0932617V1.56076Z" fill="black"/>
<path fill-rule="evenodd" clip-rule="evenodd" d="M58.2043 1.12004V9.58633H58.0157C57.6594 7.90984 57.1355 6.29621 56.2344 4.82928C55.1657 3.11088 53.4682 1.18291 51.2678 1.18291C46.1964 1.18291 45.7354 10.2779 45.7354 13.7356C45.7354 16.8372 45.9869 20.0434 47.1185 22.9563C47.9148 24.9891 49.0465 25.995 51.163 25.995C52.8395 25.995 54.6417 25.1358 55.5429 23.6898C55.7734 23.3126 55.7943 22.8725 55.7943 22.4534V15.9151H53.573V15.6636H61.683V15.9151H59.776V25.7016H59.6084C59.1264 24.9053 58.3719 24.3814 57.408 24.3814C56.7164 24.3814 56.0249 24.6328 55.4171 24.9681L54.8723 25.2615C53.6358 25.8064 52.4413 26.2046 51.0582 26.2046C44.7504 26.2046 41.3975 19.4986 41.3975 13.9242C41.3975 9.85876 42.9482 5.49988 46.2593 2.94323C47.7472 1.79064 49.5284 0.952393 51.4355 0.952393C52.1899 0.952393 52.9233 1.18291 53.6149 1.45534L54.1178 1.64395C54.7046 1.85351 55.3333 2.06307 55.941 2.06307C56.7164 2.06307 57.408 1.56012 57.9947 1.12004H58.1833H58.2043Z" fill="black"/>
<path fill-rule="evenodd" clip-rule="evenodd" d="M60.6347 1.56067H69.2896V1.81214H66.9844V20.6098C66.9844 23.5646 70.023 25.3459 72.6635 25.3459C75.5136 25.3459 77.9235 23.3551 77.9235 20.4422V1.81214H75.1992V1.56067H97.5385V10.2784H97.3708C97.1193 7.97325 96.6793 5.60521 95.0866 3.80298C93.473 1.97979 91.2935 1.81214 89.0512 1.81214H86.6203V13.0237C87.1233 13.0866 87.6262 13.1075 88.1291 13.1075C91.1678 13.1075 91.9641 11.0119 92.0899 8.41333H92.3204V18.2418H92.0899C91.7127 15.8947 90.6648 13.3799 87.9196 13.3799C87.4795 13.3799 87.0604 13.4009 86.6203 13.4428V25.4297H90.2457C92.1318 25.4297 93.9969 24.6124 95.3381 23.2922C96.4697 22.1815 97.266 20.7146 97.5385 19.1429C97.6852 18.2627 97.769 17.3616 97.8109 16.4814H97.9995V25.6602H80.5221V25.4088H82.5548V1.77023H78.2588V20.4631C78.2588 24.34 74.5915 26.0375 71.1547 26.0375C67.2568 26.0375 62.9608 24.1514 62.9608 19.6877V1.74928H60.5928V1.4978L60.6347 1.56067Z" fill="black"/>
<path fill-rule="evenodd" clip-rule="evenodd" d="M36.305 4.80933C34.5656 2.65084 31.8413 1.01627 28.9913 1.01627C25.9107 1.01627 23.1235 2.73467 21.2794 5.12367C19.4143 7.55459 18.5132 10.6351 18.5132 13.6947C18.5132 16.7543 19.4981 20.1073 21.5309 22.6011C23.3121 24.8015 26.0364 26.3942 28.9074 26.3942C31.967 26.3942 34.7332 24.6548 36.5564 22.2868C38.4215 19.8558 39.3226 16.7753 39.3226 13.7157C39.3226 10.6561 38.3167 7.30311 36.305 4.80933ZM28.9074 26.0379C24.1294 26.0379 22.893 17.2363 22.893 13.7157C22.893 10.1951 24.1294 1.39348 28.9074 1.39348C33.6854 1.39348 34.9218 10.1951 34.9218 13.7157C34.9218 17.2363 33.6645 26.0379 28.9074 26.0379Z" fill="black"/>
<path d="M28.5322 40.5699V32.723H29.7822C30.3389 32.723 30.7824 32.7637 31.1129 32.845C31.4469 32.9263 31.7289 33.0635 31.9587 33.2567C32.1922 33.4566 32.3772 33.7056 32.5137 34.0037C32.6537 34.3053 32.7238 34.6102 32.7238 34.9185C32.7238 35.481 32.4957 35.957 32.0396 36.3466C32.4813 36.4889 32.8297 36.7379 33.0848 37.0937C33.3434 37.4461 33.4727 37.856 33.4727 38.3236C33.4727 38.9368 33.2428 39.4552 32.783 39.8787C32.5065 40.1396 32.1958 40.3209 31.851 40.4225C31.4739 40.5208 31.0015 40.5699 30.4341 40.5699H28.5322ZM29.7875 36.0925H30.1808C30.6478 36.0925 30.989 35.9959 31.2045 35.8028C31.4236 35.6063 31.5331 35.3183 31.5331 34.9389C31.5331 34.5695 31.4218 34.29 31.1991 34.1003C30.9764 33.9072 30.6531 33.8106 30.2293 33.8106H29.7875V36.0925ZM29.7875 39.4569H30.5634C31.1308 39.4569 31.5475 39.3519 31.8133 39.1418C32.0934 38.9148 32.2335 38.6268 32.2335 38.2779C32.2335 37.939 32.0988 37.6544 31.8294 37.424C31.5672 37.197 31.0985 37.0835 30.4233 37.0835H29.7875V39.4569Z" fill="black"/>
<path d="M36.3173 32.723V37.4495C36.3173 38.1237 36.434 38.6167 36.6675 38.9284C37.0159 39.379 37.5062 39.6043 38.1383 39.6043C38.7741 39.6043 39.2661 39.379 39.6145 38.9284C39.848 38.6268 39.9647 38.1339 39.9647 37.4495V32.723H41.22V37.7747C41.22 38.6014 40.9471 39.2824 40.4011 39.8178C39.7869 40.4141 39.0327 40.7122 38.1383 40.7122C37.244 40.7122 36.4915 40.4141 35.8809 39.8178C35.335 39.2824 35.062 38.6014 35.062 37.7747V32.723H36.3173Z" fill="black"/>
<path d="M47.9222 33.8919L46.904 34.4611C46.7136 34.1494 46.5322 33.9461 46.3598 33.8513C46.1802 33.7428 45.9486 33.6886 45.6648 33.6886C45.3164 33.6886 45.0273 33.7818 44.7974 33.9682C44.5675 34.1511 44.4526 34.3815 44.4526 34.6593C44.4526 35.0422 44.7543 35.3505 45.3577 35.5843L46.1874 35.9045C46.8627 36.162 47.3565 36.4771 47.669 36.8498C47.9815 37.2191 48.1377 37.6731 48.1377 38.2118C48.1377 38.9335 47.8827 39.5298 47.3727 40.0007C46.8591 40.475 46.2215 40.7122 45.4601 40.7122C44.7381 40.7122 44.1419 40.5106 43.6714 40.1074C43.2081 39.7043 42.9189 39.1367 42.804 38.4049L44.0755 38.1406C44.1329 38.6014 44.2335 38.9199 44.3772 39.0961C44.6358 39.4349 45.0129 39.6043 45.5086 39.6043C45.9001 39.6043 46.2251 39.4806 46.4837 39.2333C46.7423 38.986 46.8716 38.6726 46.8716 38.2931C46.8716 38.1406 46.8483 38.0017 46.8016 37.8764C46.7585 37.7476 46.6885 37.6307 46.5915 37.5257C46.4981 37.4173 46.376 37.3173 46.2251 37.2258C46.0743 37.131 45.8947 37.0412 45.6864 36.9565L44.8836 36.6414C43.745 36.1874 43.1757 35.5233 43.1757 34.6492C43.1757 34.0596 43.4146 33.5667 43.8923 33.1703C44.37 32.7705 44.9644 32.5706 45.6756 32.5706C46.6346 32.5706 47.3835 33.011 47.9222 33.8919Z" fill="black"/>
<path d="M50.9069 32.723V40.5699H49.6516V32.723H50.9069Z" fill="black"/>
<path d="M52.9058 40.5699V32.1894L58.9722 38.1762V32.723H60.2275V41.0476L54.1611 35.0761V40.5699H52.9058Z" fill="black"/>
<path d="M66.8165 33.836H63.4816V35.7215H66.7196V36.8345H63.4816V39.4569H66.8165V40.5699H62.2263V32.723H66.8165V33.836Z" fill="black"/>
<path d="M73.1685 33.8919L72.1503 34.4611C71.9599 34.1494 71.7785 33.9461 71.6061 33.8513C71.4265 33.7428 71.1949 33.6886 70.9111 33.6886C70.5627 33.6886 70.2736 33.7818 70.0437 33.9682C69.8139 34.1511 69.6989 34.3815 69.6989 34.6593C69.6989 35.0422 70.0006 35.3505 70.604 35.5843L71.4337 35.9045C72.109 36.162 72.6028 36.4771 72.9153 36.8498C73.2278 37.2191 73.384 37.6731 73.384 38.2118C73.384 38.9335 73.129 39.5298 72.619 40.0007C72.1054 40.475 71.4678 40.7122 70.7064 40.7122C69.9845 40.7122 69.3882 40.5106 68.9177 40.1074C68.4544 39.7043 68.1652 39.1367 68.0503 38.4049L69.3218 38.1406C69.3792 38.6014 69.4798 38.9199 69.6235 39.0961C69.8821 39.4349 70.2592 39.6043 70.7549 39.6043C71.1464 39.6043 71.4714 39.4806 71.73 39.2333C71.9886 38.986 72.1179 38.6726 72.1179 38.2931C72.1179 38.1406 72.0946 38.0017 72.0479 37.8764C72.0048 37.7476 71.9348 37.6307 71.8378 37.5257C71.7444 37.4173 71.6223 37.3173 71.4714 37.2258C71.3206 37.131 71.141 37.0412 70.9327 36.9565L70.1299 36.6414C68.9913 36.1874 68.4221 35.5233 68.4221 34.6492C68.4221 34.0596 68.6609 33.5667 69.1386 33.1703C69.6163 32.7705 70.2107 32.5706 70.9219 32.5706C71.8809 32.5706 72.6298 33.011 73.1685 33.8919Z" fill="black"/>
<path d="M79.6013 33.8919L78.5831 34.4611C78.3927 34.1494 78.2113 33.9461 78.0389 33.8513C77.8593 33.7428 77.6277 33.6886 77.3439 33.6886C76.9955 33.6886 76.7064 33.7818 76.4765 33.9682C76.2467 34.1511 76.1317 34.3815 76.1317 34.6593C76.1317 35.0422 76.4334 35.3505 77.0368 35.5843L77.8665 35.9045C78.5418 36.162 79.0356 36.4771 79.3481 36.8498C79.6606 37.2191 79.8168 37.6731 79.8168 38.2118C79.8168 38.9335 79.5618 39.5298 79.0518 40.0007C78.5382 40.475 77.9006 40.7122 77.1392 40.7122C76.4173 40.7122 75.821 40.5106 75.3505 40.1074C74.8872 39.7043 74.598 39.1367 74.4831 38.4049L75.7546 38.1406C75.812 38.6014 75.9126 38.9199 76.0563 39.0961C76.3149 39.4349 76.692 39.6043 77.1877 39.6043C77.5792 39.6043 77.9042 39.4806 78.1628 39.2333C78.4214 38.986 78.5507 38.6726 78.5507 38.2931C78.5507 38.1406 78.5274 38.0017 78.4807 37.8764C78.4376 37.7476 78.3676 37.6307 78.2706 37.5257C78.1772 37.4173 78.0551 37.3173 77.9042 37.2258C77.7534 37.131 77.5738 37.0412 77.3655 36.9565L76.5627 36.6414C75.4241 36.1874 74.8549 35.5233 74.8549 34.6492C74.8549 34.0596 75.0937 33.5667 75.5714 33.1703C76.0491 32.7705 76.6435 32.5706 77.3547 32.5706C78.3137 32.5706 79.0626 33.011 79.6013 33.8919Z" fill="black"/>
</svg>
