<svg xmlns="http://www.w3.org/2000/svg" viewBox="0 0 300 150" style="height:auto;width:100%"><path d="M28.1 106h24.5l12.1-45.5L76.8 106h24.3l22.7-85h-22.6l-12 46.8L76.7 21h-23L41.3 67.5 29.4 21H5.3l22.8 85zm97 0h24.3l12.1-45.3 12 45.3H198l22.8-85h-22.9L186 67.5 173.6 21h-23L138 68l-11.3-44.1-11.8 44.2 10.2 37.9zm115.4-21.8V42.8h6.8c15.5 0 22.2 5.4 22.2 20.7 0 15.3-6.7 20.7-22.2 20.7h-6.8zm6.4 21.8c24.8 0 47.8-9 47.8-42.5 0-33.6-23-42.5-47.8-42.5h-22.3l-9 33.4V106h31.3zM66.3 128.8l-1.9-7-1.8 7h-1.8l-2.7-9.5H60l1.9 7.3 2-7.3h1.3l2 7.3 1.8-7.3h1.9l-2.7 9.5h-1.9zm11.7-9.6c2.9 0 4.9 2.1 4.9 4.9 0 2.8-2 4.9-4.9 4.9-2.9 0-4.9-2.1-4.9-4.9.1-2.9 2.1-4.9 4.9-4.9zm0 1.4c-1.9 0-3.2 1.5-3.2 3.4 0 2 1.2 3.4 3.2 3.4 1.9 0 3.2-1.5 3.2-3.4s-1.3-3.4-3.2-3.4zm16.7 8.2v-7.2l-2.9 7.2h-.7l-2.9-7.2v7.2h-1.7v-9.5h2.4l2.6 6.4 2.6-6.4h2.4v9.5h-1.8zm5.7 0v-9.5h6.5v1.5h-4.8v2.5h4.7v1.5h-4.7v2.6h4.8v1.5h-6.5zm16.9 0l-5-6.9v6.9h-1.7v-9.5h1.7l4.9 6.7v-6.7h1.7v9.5h-1.6zm5.8-5.5s-.5-3-.5-3.2c0-.5.4-.8.8-.8.5 0 .8.4.8.8 0 .2-.5 3.2-.5 3.2h-.6zm5.2 2.9c.7.7 1.7 1.3 3 1.3 1.4 0 1.9-.7 1.9-1.3 0-.9-1-1.1-2.2-1.4-1.6-.4-3.4-.8-3.4-2.9 0-1.6 1.4-2.8 3.5-2.8 1.5 0 2.7.5 3.6 1.3l-1 1.2c-.7-.7-1.8-1.1-2.8-1.1-1 0-1.6.5-1.6 1.2s1 1 2.1 1.3c1.6.4 3.4.9 3.4 3 0 1.6-1.1 2.9-3.7 2.9-1.8 0-3-.6-3.9-1.5l1.1-1.2zm23 2.6l-1.9-7-1.8 7h-1.8l-2.7-9.5h1.9l1.9 7.3 2-7.3h1.3l2 7.3 1.8-7.3h1.9l-2.7 9.5h-1.9zm7.6 0v-9.5h6.5v1.5h-4.8v2.5h4.7v1.5h-4.7v2.6h4.8v1.5h-6.5zm17 0l-.7-1.8h-4.5l-.7 1.8h-1.8l3.7-9.5h2.1l3.7 9.5h-1.8zm-2.9-8.1l-1.8 4.8h3.6l-1.8-4.8zm13.2 8.1l-2.1-3.6h-1.7v3.6h-1.7v-9.5h4.2c1.9 0 3.1 1.2 3.1 3 0 1.7-1.1 2.6-2.3 2.8l2.3 3.7h-1.8zm-1.5-8h-2.3v3h2.3c.9 0 1.6-.6 1.6-1.5s-.6-1.5-1.6-1.5zm12.7 8v-9.5h3.5c3 0 5 2 5 4.8s-2 4.7-5 4.7h-3.5zm1.6-1.4h1.9c2.1 0 3.3-1.5 3.3-3.3 0-1.8-1.1-3.3-3.3-3.3H199v6.6zm16.7 1.4l-.7-1.8h-4.5l-.7 1.8H208l3.7-9.5h2.1l3.7 9.5h-1.8zm-2.9-8.1l-1.8 4.8h3.6l-1.8-4.8zm7.8 8.1v-9.5h1.7v9.5h-1.7zm5.7 0v-9.5h1.7v8h4.2v1.5h-5.9zm10.3 0v-3.9l-3.7-5.6h1.9l2.6 4.1 2.6-4.1h1.9l-3.7 5.6v3.9h-1.6z"></path></svg>